<svg xmlns="http://www.w3.org/2000/svg" viewBox="0 0 560 260" role="img" aria-label="Skill verification graph">
  <rect width="560" height="260" rx="8" fill="#ffffff"/>
  <path d="M42 206H518" stroke="#d7ded7" stroke-width="1"/>
  <path d="M42 158H518" stroke="#d7ded7" stroke-width="1"/>
  <path d="M42 110H518" stroke="#d7ded7" stroke-width="1"/>
  <path d="M42 62H518" stroke="#d7ded7" stroke-width="1"/>
  <path d="M78 188C126 142 154 84 208 92C260 100 274 176 326 166C384 154 396 70 482 56" fill="none" stroke="#0f766e" stroke-width="4" stroke-linecap="round"/>
  <path d="M78 202C128 198 152 168 200 170C254 174 280 126 326 122C384 116 404 148 482 128" fill="none" stroke="#2563eb" stroke-width="4" stroke-linecap="round"/>
  <path d="M78 172C116 156 154 150 206 136C252 124 286 74 326 78C392 84 414 102 482 86" fill="none" stroke="#a16207" stroke-width="4" stroke-linecap="round"/>
  <g fill="#ffffff" stroke-width="4">
    <circle cx="78" cy="188" r="9" stroke="#0f766e"/>
    <circle cx="208" cy="92" r="9" stroke="#0f766e"/>
    <circle cx="326" cy="166" r="9" stroke="#0f766e"/>
    <circle cx="482" cy="56" r="9" stroke="#0f766e"/>
    <circle cx="200" cy="170" r="9" stroke="#2563eb"/>
    <circle cx="326" cy="122" r="9" stroke="#2563eb"/>
    <circle cx="482" cy="128" r="9" stroke="#2563eb"/>
    <circle cx="206" cy="136" r="9" stroke="#a16207"/>
    <circle cx="326" cy="78" r="9" stroke="#a16207"/>
  </g>
  <g font-family="Inter, ui-sans-serif, system-ui, sans-serif" font-size="12" fill="#56645e">
    <text x="42" y="236">bundle hash</text>
    <text x="182" y="236">scanner rules</text>
    <text x="334" y="236">registry leaf</text>
    <text x="454" y="236">hub state</text>
  </g>
</svg>
